<svg xmlns="http://www.w3.org/2000/svg" xmlns:xlink="http://www.w3.org/1999/xlink" width="500" zoomAndPan="magnify" viewBox="0 0 375 234.749995" height="313" preserveAspectRatio="xMidYMid meet" version="1.0"><defs><clipPath id="a70996c4a3"><path d="M 14 17 L 374.4375 17 L 374.4375 234.5 L 14 234.5 Z M 14 17 " clip-rule="nonzero"/></clipPath><clipPath id="6acae5c598"><path d="M 0.199219 1 L 362 1 L 362 218 L 0.199219 218 Z M 0.199219 1 " clip-rule="nonzero"/></clipPath><clipPath id="24a25c93e0"><path d="M 0.199219 0 L 363 0 L 363 219 L 0.199219 219 Z M 0.199219 0 " clip-rule="nonzero"/></clipPath><clipPath id="bd9388744c"><path d="M 345 210 L 350 210 L 350 218.257812 L 345 218.257812 Z M 345 210 " clip-rule="nonzero"/></clipPath><clipPath id="293ceb5324"><path d="M 303 203 L 308 203 L 308 218.257812 L 303 218.257812 Z M 303 203 " clip-rule="nonzero"/></clipPath><clipPath id="c14675a6a2"><path d="M 312 210 L 316 210 L 316 218.257812 L 312 218.257812 Z M 312 210 " clip-rule="nonzero"/></clipPath><clipPath id="392e8ab9f2"><path d="M 325 214 L 327 214 L 327 218.257812 L 325 218.257812 Z M 325 214 " clip-rule="nonzero"/></clipPath><clipPath id="26885b40f6"><path d="M 335 214 L 338 214 L 338 218.257812 L 335 218.257812 Z M 335 214 " clip-rule="nonzero"/></clipPath><clipPath id="8716214801"><path d="M 307 203 L 315 203 L 315 218.257812 L 307 218.257812 Z M 307 203 " clip-rule="nonzero"/></clipPath><clipPath id="93c87598bb"><path d="M 326 201 L 331 201 L 331 218.257812 L 326 218.257812 Z M 326 201 " clip-rule="nonzero"/></clipPath><clipPath id="973f03efb3"><path d="M 331 201 L 337 201 L 337 218.257812 L 331 218.257812 Z M 331 201 " clip-rule="nonzero"/></clipPath><clipPath id="1de04b285c"><path d="M 350 204 L 361.460938 204 L 361.460938 218.257812 L 350 218.257812 Z M 350 204 " clip-rule="nonzero"/></clipPath><clipPath id="9e313425ca"><path d="M 277.550781 204 L 290 204 L 290 218.257812 L 277.550781 218.257812 Z M 277.550781 204 " clip-rule="nonzero"/></clipPath><clipPath id="2adcb98f73"><path d="M 331 164.316406 L 352 164.316406 L 352 180 L 331 180 Z M 331 164.316406 " clip-rule="nonzero"/></clipPath></defs><g clip-path="url(#a70996c4a3)"><path fill="#e0d5b2" d="M 14.136719 17.558594 L 374.390625 17.558594 L 374.390625 234.210938 L 14.136719 234.210938 Z M 14.136719 17.558594 " fill-opacity="1" fill-rule="nonzero"/></g><g clip-path="url(#6acae5c598)"><path fill="#fff6cf" d="M 0.910156 1.261719 L 361.167969 1.261719 L 361.167969 217.910156 L 0.910156 217.910156 Z M 0.910156 1.261719 " fill-opacity="1" fill-rule="nonzero"/><path fill="#f9f0cb" d="M 0.910156 217.910156 C 0.910156 217.910156 326.59375 201.308594 361.167969 1.261719 L 361.167969 217.910156 Z M 0.910156 217.910156 " fill-opacity="1" fill-rule="nonzero"/></g><path fill="#00a79d" d="M 25.402344 18.488281 C 25.402344 18.933594 25.359375 19.378906 25.273438 19.816406 C 25.1875 20.253906 25.058594 20.679688 24.886719 21.09375 C 24.714844 21.507812 24.503906 21.898438 24.257812 22.273438 C 24.007812 22.644531 23.726562 22.988281 23.410156 23.304688 C 23.09375 23.621094 22.75 23.902344 22.378906 24.152344 C 22.007812 24.398438 21.613281 24.609375 21.203125 24.78125 C 20.789062 24.953125 20.363281 25.082031 19.925781 25.167969 C 19.488281 25.253906 19.042969 25.300781 18.597656 25.300781 C 18.148438 25.300781 17.707031 25.253906 17.269531 25.167969 C 16.832031 25.082031 16.40625 24.953125 15.992188 24.78125 C 15.578125 24.609375 15.1875 24.398438 14.816406 24.152344 C 14.445312 23.902344 14.101562 23.621094 13.785156 23.304688 C 13.46875 22.988281 13.183594 22.644531 12.9375 22.273438 C 12.6875 21.898438 12.480469 21.507812 12.308594 21.09375 C 12.136719 20.679688 12.007812 20.253906 11.921875 19.816406 C 11.832031 19.378906 11.789062 18.933594 11.789062 18.488281 C 11.789062 18.039062 11.832031 17.597656 11.921875 17.15625 C 12.007812 16.71875 12.136719 16.292969 12.308594 15.878906 C 12.480469 15.464844 12.6875 15.074219 12.9375 14.703125 C 13.183594 14.328125 13.46875 13.984375 13.785156 13.667969 C 14.101562 13.351562 14.445312 13.070312 14.816406 12.820312 C 15.1875 12.574219 15.578125 12.363281 15.992188 12.191406 C 16.40625 12.019531 16.832031 11.890625 17.269531 11.804688 C 17.707031 11.71875 18.148438 11.675781 18.597656 11.675781 C 19.042969 11.675781 19.488281 11.71875 19.925781 11.804688 C 20.363281 11.890625 20.789062 12.019531 21.203125 12.191406 C 21.613281 12.363281 22.007812 12.574219 22.378906 12.820312 C 22.75 13.070312 23.09375 13.351562 23.410156 13.667969 C 23.726562 13.984375 24.007812 14.328125 24.257812 14.703125 C 24.503906 15.074219 24.714844 15.464844 24.886719 15.878906 C 25.058594 16.292969 25.1875 16.71875 25.273438 17.15625 C 25.359375 17.597656 25.402344 18.039062 25.402344 18.488281 Z M 25.402344 18.488281 " fill-opacity="1" fill-rule="nonzero"/><path fill="#00a79d" d="M 352.722656 18.488281 C 352.722656 18.933594 352.679688 19.378906 352.589844 19.816406 C 352.503906 20.253906 352.375 20.679688 352.203125 21.09375 C 352.03125 21.507812 351.824219 21.898438 351.574219 22.273438 C 351.328125 22.644531 351.042969 22.988281 350.726562 23.304688 C 350.414062 23.621094 350.070312 23.902344 349.695312 24.152344 C 349.324219 24.398438 348.933594 24.609375 348.519531 24.78125 C 348.105469 24.953125 347.679688 25.082031 347.242188 25.167969 C 346.804688 25.253906 346.363281 25.300781 345.914062 25.300781 C 345.46875 25.300781 345.027344 25.253906 344.585938 25.167969 C 344.148438 25.082031 343.722656 24.953125 343.308594 24.78125 C 342.898438 24.609375 342.503906 24.398438 342.132812 24.152344 C 341.761719 23.902344 341.417969 23.621094 341.101562 23.304688 C 340.785156 22.988281 340.503906 22.644531 340.253906 22.273438 C 340.007812 21.898438 339.796875 21.507812 339.625 21.09375 C 339.457031 20.679688 339.324219 20.253906 339.238281 19.816406 C 339.152344 19.378906 339.109375 18.933594 339.109375 18.488281 C 339.109375 18.039062 339.152344 17.597656 339.238281 17.15625 C 339.324219 16.71875 339.457031 16.292969 339.625 15.878906 C 339.796875 15.464844 340.007812 15.074219 340.253906 14.703125 C 340.503906 14.328125 340.785156 13.984375 341.101562 13.667969 C 341.417969 13.351562 341.761719 13.070312 342.132812 12.820312 C 342.503906 12.574219 342.898438 12.363281 343.308594 12.191406 C 343.722656 12.019531 344.148438 11.890625 344.585938 11.804688 C 345.027344 11.71875 345.46875 11.675781 345.914062 11.675781 C 346.363281 11.675781 346.804688 11.71875 347.242188 11.804688 C 347.679688 11.890625 348.105469 12.019531 348.519531 12.191406 C 348.933594 12.363281 349.324219 12.574219 349.695312 12.820312 C 350.070312 13.070312 350.414062 13.351562 350.726562 13.667969 C 351.042969 13.984375 351.328125 14.328125 351.574219 14.703125 C 351.824219 15.074219 352.03125 15.464844 352.203125 15.878906 C 352.375 16.292969 352.503906 16.71875 352.589844 17.15625 C 352.679688 17.597656 352.722656 18.039062 352.722656 18.488281 Z M 352.722656 18.488281 " fill-opacity="1" fill-rule="nonzero"/><g clip-path="url(#24a25c93e0)"><path fill="#082a44" d="M 362.242188 218.988281 L 0.910156 218.988281 C 0.308594 218.988281 -0.164062 218.515625 -0.164062 217.910156 C -0.164062 217.308594 0.308594 216.832031 0.910156 216.832031 L 360.089844 216.832031 L 360.089844 1.261719 C 360.089844 0.65625 360.5625 0.183594 361.167969 0.183594 C 361.769531 0.183594 362.242188 0.65625 362.242188 1.261719 Z M 362.242188 218.988281 " fill-opacity="1" fill-rule="nonzero"/></g><g clip-path="url(#bd9388744c)"><path fill="#000000" d="M 348.90625 214.898438 C 347.605469 214.898438 346.484375 213.933594 346.292969 212.65625 L 345.988281 210.617188 L 345.15625 215.511719 C 344.949219 216.722656 345.769531 217.867188 346.988281 218.070312 C 347.113281 218.089844 347.238281 218.101562 347.363281 218.101562 C 348.433594 218.101562 349.378906 217.335938 349.5625 216.25 L 349.820312 214.738281 C 349.65625 214.800781 349.480469 214.84375 349.296875 214.871094 C 349.167969 214.890625 349.039062 214.898438 348.90625 214.898438 Z M 348.90625 214.898438 " fill-opacity="1" fill-rule="nonzero"/></g><g clip-path="url(#293ceb5324)"><path fill="#000000" d="M 305.191406 212.992188 L 306.429688 205.253906 C 305.582031 205.089844 304.890625 204.460938 304.652344 203.625 C 304.464844 203.734375 304.339844 203.929688 304.339844 204.160156 C 304.339844 204.5 304.621094 204.78125 304.964844 204.78125 L 305.359375 204.78125 L 303.234375 218.042969 L 304.351562 218.21875 L 304.992188 214.234375 L 307.5 214.234375 L 307.949219 212.992188 Z M 305.191406 212.992188 " fill-opacity="1" fill-rule="nonzero"/></g><g clip-path="url(#c14675a6a2)"><path fill="#000000" d="M 313.054688 212.992188 L 312.890625 212.992188 L 312.441406 214.234375 L 313.253906 214.234375 L 313.890625 218.21875 L 315.011719 218.042969 L 313.796875 210.480469 L 313.003906 212.675781 Z M 313.054688 212.992188 " fill-opacity="1" fill-rule="nonzero"/></g><g clip-path="url(#392e8ab9f2)"><path fill="#000000" d="M 326.015625 214.269531 L 325.410156 218.042969 L 326.527344 218.21875 L 326.636719 217.550781 C 326.25 217.089844 326.015625 216.5 326.015625 215.855469 Z M 326.015625 214.269531 " fill-opacity="1" fill-rule="nonzero"/></g><g clip-path="url(#26885b40f6)"><path fill="#000000" d="M 335.960938 217.550781 L 336.066406 218.21875 L 337.1875 218.042969 L 336.582031 214.265625 L 336.582031 215.855469 C 336.582031 216.5 336.347656 217.089844 335.960938 217.550781 Z M 335.960938 217.550781 " fill-opacity="1" fill-rule="nonzero"/></g><path fill="#000000" d="M 310.949219 204.699219 C 310.960938 204.660156 310.976562 204.625 310.992188 204.589844 L 307.441406 205.238281 L 310.355469 206.332031 Z M 310.949219 204.699219 " fill-opacity="1" fill-rule="nonzero"/><path fill="#000000" d="M 315.089844 200.878906 C 314.710938 200.238281 313.964844 199.898438 313.222656 200.03125 L 310.570312 200.515625 C 310.285156 200.941406 309.800781 201.210938 309.261719 201.210938 C 309.136719 201.210938 309.011719 201.195312 308.890625 201.167969 L 305.367188 200.316406 C 305.25 200.648438 305.148438 201.007812 305.09375 201.429688 C 305.03125 201.652344 304.996094 201.992188 304.996094 202.476562 C 304.996094 202.722656 305.023438 202.941406 305.070312 203.136719 L 305.101562 203.121094 C 305.109375 203.183594 305.113281 203.246094 305.128906 203.3125 C 305.304688 204.277344 306.238281 204.914062 307.207031 204.738281 L 311.371094 203.980469 C 311.804688 203.476562 312.445312 203.167969 313.136719 203.167969 C 313.402344 203.167969 313.667969 203.214844 313.921875 203.304688 C 314.503906 203.511719 314.972656 203.933594 315.238281 204.492188 C 315.503906 205.050781 315.535156 205.675781 315.324219 206.257812 L 314.867188 207.519531 L 317.546875 212.058594 C 317.882812 212.621094 318.480469 212.9375 319.09375 212.9375 C 319.398438 212.9375 319.710938 212.855469 319.996094 212.691406 C 320.847656 212.195312 321.132812 211.105469 320.632812 210.261719 Z M 315.089844 200.878906 " fill-opacity="1" fill-rule="nonzero"/><g clip-path="url(#8716214801)"><path fill="#000000" d="M 314.820312 206.078125 C 315.152344 205.15625 314.667969 204.136719 313.738281 203.808594 C 312.8125 203.476562 311.785156 203.957031 311.453125 204.878906 L 307.472656 215.886719 C 307.140625 216.808594 307.625 217.828125 308.554688 218.15625 C 308.753906 218.230469 308.957031 218.261719 309.15625 218.261719 C 309.890625 218.261719 310.578125 217.8125 310.839844 217.085938 Z M 314.820312 206.078125 " fill-opacity="1" fill-rule="nonzero"/></g><path fill="#000000" d="M 302.597656 198.160156 C 302.515625 198.746094 302.894531 199.296875 303.472656 199.4375 L 308.988281 200.769531 C 309.078125 200.792969 309.171875 200.800781 309.261719 200.800781 C 309.785156 200.800781 310.261719 200.449219 310.390625 199.921875 C 310.542969 199.300781 310.160156 198.675781 309.535156 198.527344 L 305.046875 197.441406 C 305.261719 195.949219 305.480469 194.632812 305.65625 193.625 C 306.128906 194.847656 306.515625 196.179688 306.433594 197.128906 C 306.429688 197.207031 306.417969 197.277344 306.410156 197.351562 L 309.632812 198.128906 C 310.042969 198.226562 310.386719 198.480469 310.605469 198.835938 C 310.808594 199.167969 310.878906 199.550781 310.808594 199.929688 L 313.128906 199.507812 C 313.265625 199.484375 313.40625 199.46875 313.546875 199.46875 C 313.59375 199.46875 313.640625 199.472656 313.6875 199.476562 C 313.378906 198.796875 313.058594 198.125 312.972656 197.128906 C 312.863281 195.84375 313.609375 193.859375 314.269531 192.390625 C 313.816406 192.226562 313.316406 191.925781 312.816406 191.386719 C 312.257812 190.78125 312.042969 189.976562 311.949219 189.140625 L 311.488281 189.207031 C 310.949219 189.132812 310.355469 189.085938 309.703125 189.085938 C 306.859375 189.085938 305.058594 189.96875 304.441406 190.328125 C 304.09375 190.472656 303.824219 190.777344 303.746094 191.167969 C 303.742188 191.199219 303.132812 194.265625 302.597656 198.160156 Z M 302.597656 198.160156 " fill-opacity="1" fill-rule="nonzero"/><path fill="#000000" d="M 336.242188 188.976562 C 335.746094 188.550781 335.253906 188.425781 334.90625 188.402344 C 334.855469 188.394531 334.804688 188.390625 334.753906 188.390625 L 327.84375 188.390625 C 327.792969 188.390625 327.742188 188.394531 327.691406 188.402344 C 327.339844 188.425781 326.851562 188.550781 326.351562 188.976562 C 324.480469 190.570312 323.761719 195.496094 324.148438 204.03125 C 324.179688 204.792969 324.8125 205.390625 325.574219 205.390625 C 325.597656 205.390625 325.617188 205.390625 325.640625 205.386719 C 325.769531 205.382812 325.894531 205.359375 326.015625 205.320312 L 326.015625 203.929688 C 326.015625 202.476562 327.207031 201.292969 328.671875 201.292969 C 329.910156 201.292969 330.953125 202.140625 331.246094 203.28125 L 331.351562 203.28125 C 331.644531 202.140625 332.683594 201.292969 333.921875 201.292969 C 335.390625 201.292969 336.582031 202.476562 336.582031 203.929688 L 336.582031 205.320312 C 336.699219 205.359375 336.824219 205.382812 336.957031 205.386719 C 336.976562 205.390625 337 205.390625 337.019531 205.390625 C 337.78125 205.390625 338.414062 204.792969 338.449219 204.03125 C 338.835938 195.496094 338.113281 190.570312 336.242188 188.976562 Z M 336.242188 188.976562 " fill-opacity="1" fill-rule="nonzero"/><g clip-path="url(#93c87598bb)"><path fill="#000000" d="M 330.882812 203.929688 C 330.882812 202.71875 329.894531 201.734375 328.671875 201.734375 C 327.453125 201.734375 326.460938 202.71875 326.460938 203.929688 L 326.460938 215.855469 C 326.460938 217.070312 327.453125 218.050781 328.671875 218.050781 C 329.894531 218.050781 330.882812 217.070312 330.882812 215.855469 Z M 330.882812 203.929688 " fill-opacity="1" fill-rule="nonzero"/></g><g clip-path="url(#973f03efb3)"><path fill="#000000" d="M 336.132812 203.929688 C 336.132812 202.71875 335.144531 201.734375 333.921875 201.734375 C 332.703125 201.734375 331.710938 202.71875 331.710938 203.929688 L 331.710938 215.855469 C 331.710938 217.070312 332.703125 218.050781 333.921875 218.050781 C 335.144531 218.050781 336.132812 217.070312 336.132812 215.855469 Z M 336.132812 203.929688 " fill-opacity="1" fill-rule="nonzero"/></g><path fill="#000000" d="M 335.320312 183.386719 C 335.320312 183.648438 335.296875 183.90625 335.246094 184.164062 C 335.191406 184.421875 335.117188 184.671875 335.015625 184.914062 C 334.914062 185.15625 334.789062 185.386719 334.644531 185.605469 C 334.496094 185.824219 334.328125 186.023438 334.144531 186.210938 C 333.957031 186.394531 333.753906 186.5625 333.535156 186.707031 C 333.3125 186.851562 333.082031 186.976562 332.835938 187.074219 C 332.59375 187.175781 332.34375 187.253906 332.082031 187.304688 C 331.824219 187.355469 331.5625 187.378906 331.296875 187.378906 C 331.035156 187.378906 330.773438 187.355469 330.511719 187.304688 C 330.253906 187.253906 330.003906 187.175781 329.757812 187.074219 C 329.515625 186.976562 329.28125 186.851562 329.0625 186.707031 C 328.84375 186.5625 328.640625 186.394531 328.453125 186.210938 C 328.265625 186.023438 328.097656 185.824219 327.953125 185.605469 C 327.804688 185.386719 327.683594 185.15625 327.582031 184.914062 C 327.480469 184.671875 327.402344 184.421875 327.351562 184.164062 C 327.300781 183.90625 327.273438 183.648438 327.273438 183.386719 C 327.273438 183.121094 327.300781 182.863281 327.351562 182.605469 C 327.402344 182.347656 327.480469 182.097656 327.582031 181.855469 C 327.683594 181.613281 327.804688 181.382812 327.953125 181.164062 C 328.097656 180.949219 328.265625 180.746094 328.453125 180.558594 C 328.640625 180.375 328.84375 180.210938 329.0625 180.0625 C 329.28125 179.917969 329.515625 179.792969 329.757812 179.695312 C 330.003906 179.59375 330.253906 179.519531 330.511719 179.464844 C 330.773438 179.414062 331.035156 179.390625 331.296875 179.390625 C 331.5625 179.390625 331.824219 179.414062 332.082031 179.464844 C 332.34375 179.519531 332.59375 179.59375 332.835938 179.695312 C 333.082031 179.792969 333.3125 179.917969 333.535156 180.0625 C 333.753906 180.210938 333.957031 180.375 334.144531 180.558594 C 334.328125 180.746094 334.496094 180.949219 334.644531 181.164062 C 334.789062 181.382812 334.914062 181.613281 335.015625 181.855469 C 335.117188 182.097656 335.191406 182.347656 335.246094 182.605469 C 335.296875 182.863281 335.320312 183.121094 335.320312 183.386719 Z M 335.320312 183.386719 " fill-opacity="1" fill-rule="nonzero"/><path fill="#000000" d="M 297.074219 190.707031 L 291.597656 192.105469 L 286.042969 189.132812 C 285.960938 189.085938 285.875 189.050781 285.785156 189.023438 C 285.652344 188.957031 285.511719 188.902344 285.359375 188.867188 C 283.832031 188.496094 281.625 189.328125 280.734375 191.933594 C 279.878906 194.484375 279.507812 196.40625 279.539062 198.71875 C 279.550781 199.65625 279.625 200.660156 279.761719 201.796875 C 280.042969 203.191406 280.660156 203.972656 281.40625 204.402344 C 281.558594 204.542969 281.734375 204.664062 281.929688 204.757812 L 288.753906 208.082031 L 290.601562 216.046875 C 290.839844 217.074219 291.761719 217.769531 292.777344 217.769531 C 292.945312 217.769531 293.113281 217.75 293.28125 217.710938 C 294.484375 217.4375 295.234375 216.246094 294.960938 215.050781 L 292.871094 206.054688 C 292.722656 205.402344 292.28125 204.855469 291.679688 204.5625 L 286.117188 201.855469 C 286.007812 200.839844 286.035156 199.773438 286.128906 198.71875 C 286.148438 198.5 286.171875 198.285156 286.199219 198.066406 L 283.300781 194.101562 C 283.011719 193.707031 282.898438 193.222656 282.972656 192.742188 C 283.050781 192.257812 283.3125 191.835938 283.710938 191.550781 C 284.027344 191.320312 284.402344 191.199219 284.792969 191.199219 C 285.382812 191.199219 285.9375 191.484375 286.285156 191.957031 L 287.082031 193.050781 C 287.09375 193.011719 287.101562 192.972656 287.113281 192.933594 L 290.730469 194.871094 C 290.941406 194.984375 291.175781 195.042969 291.410156 195.042969 C 291.527344 195.042969 291.648438 195.027344 291.765625 194.996094 L 297.785156 193.457031 C 298.550781 193.261719 299.011719 192.488281 298.816406 191.726562 C 298.617188 190.96875 297.839844 190.511719 297.074219 190.707031 Z M 297.074219 190.707031 " fill-opacity="1" fill-rule="nonzero"/><g clip-path="url(#1de04b285c)"><path fill="#000000" d="M 359.859375 205.988281 C 360.15625 205.988281 360.398438 205.746094 360.398438 205.453125 L 360.398438 205.40625 C 360.398438 205.113281 360.15625 204.875 359.859375 204.875 L 354.011719 204.875 L 354.347656 204.601562 L 350.441406 204.601562 L 350.957031 208.058594 L 351.09375 207.246094 L 352.644531 205.988281 L 352.742188 205.988281 L 350.839844 217.863281 L 351.839844 218.019531 L 352.414062 214.453125 L 359.8125 214.453125 L 360.386719 218.019531 L 361.386719 217.863281 L 359.484375 205.988281 Z M 359.632812 213.339844 L 352.59375 213.339844 L 353.769531 205.988281 L 358.457031 205.988281 Z M 359.632812 213.339844 " fill-opacity="1" fill-rule="nonzero"/></g><path fill="#000000" d="M 292.179688 184.488281 C 292.179688 184.75 292.152344 185.007812 292.101562 185.265625 C 292.050781 185.523438 291.972656 185.773438 291.871094 186.015625 C 291.769531 186.257812 291.648438 186.488281 291.5 186.707031 C 291.355469 186.925781 291.1875 187.125 291 187.3125 C 290.8125 187.496094 290.609375 187.664062 290.390625 187.808594 C 290.171875 187.953125 289.9375 188.078125 289.695312 188.179688 C 289.449219 188.277344 289.199219 188.355469 288.941406 188.40625 C 288.679688 188.457031 288.417969 188.480469 288.15625 188.480469 C 287.890625 188.480469 287.628906 188.457031 287.371094 188.40625 C 287.109375 188.355469 286.859375 188.277344 286.617188 188.179688 C 286.371094 188.078125 286.140625 187.953125 285.917969 187.808594 C 285.699219 187.664062 285.496094 187.496094 285.308594 187.3125 C 285.125 187.125 284.957031 186.925781 284.808594 186.707031 C 284.664062 186.488281 284.539062 186.257812 284.4375 186.015625 C 284.335938 185.773438 284.261719 185.523438 284.207031 185.265625 C 284.15625 185.007812 284.132812 184.75 284.132812 184.488281 C 284.132812 184.226562 284.15625 183.964844 284.207031 183.707031 C 284.261719 183.449219 284.335938 183.199219 284.4375 182.957031 C 284.539062 182.714844 284.664062 182.484375 284.808594 182.265625 C 284.957031 182.050781 285.125 181.847656 285.308594 181.660156 C 285.496094 181.476562 285.699219 181.3125 285.917969 181.164062 C 286.140625 181.019531 286.371094 180.894531 286.617188 180.796875 C 286.859375 180.695312 287.109375 180.621094 287.371094 180.570312 C 287.628906 180.515625 287.890625 180.492188 288.15625 180.492188 C 288.417969 180.492188 288.679688 180.515625 288.941406 180.570312 C 289.199219 180.621094 289.449219 180.695312 289.695312 180.796875 C 289.9375 180.894531 290.171875 181.019531 290.390625 181.164062 C 290.609375 181.3125 290.8125 181.476562 291 181.660156 C 291.1875 181.847656 291.355469 182.050781 291.5 182.265625 C 291.648438 182.484375 291.769531 182.714844 291.871094 182.957031 C 291.972656 183.199219 292.050781 183.449219 292.101562 183.707031 C 292.152344 183.964844 292.179688 184.226562 292.179688 184.488281 Z M 292.179688 184.488281 " fill-opacity="1" fill-rule="nonzero"/><g clip-path="url(#9e313425ca)"><path fill="#000000" d="M 285.375 206.890625 L 285.742188 209.191406 L 285.042969 211.132812 C 284.761719 211.917969 284.949219 212.753906 285.464844 213.339844 L 279.367188 213.339844 L 280.546875 205.988281 L 283.515625 205.988281 L 281.746094 205.125 C 281.601562 205.054688 281.464844 204.96875 281.335938 204.875 L 279.140625 204.875 C 278.847656 204.875 278.605469 205.113281 278.605469 205.40625 L 278.605469 205.453125 C 278.605469 205.746094 278.847656 205.988281 279.140625 205.988281 L 279.519531 205.988281 L 277.613281 217.863281 L 278.617188 218.019531 L 279.1875 214.453125 L 286.585938 214.453125 L 287.160156 218.019531 L 288.160156 217.863281 L 287.550781 214.0625 C 288.308594 213.921875 288.972656 213.402344 289.253906 212.628906 L 289.335938 212.402344 L 288.398438 208.363281 Z M 285.375 206.890625 " fill-opacity="1" fill-rule="nonzero"/></g><path fill="#000000" d="M 287.824219 200.003906 L 286.460938 200.1875 C 286.453125 200.660156 286.464844 201.128906 286.503906 201.585938 L 291.859375 204.195312 C 291.988281 204.257812 292.105469 204.332031 292.21875 204.410156 L 292.875 202.597656 C 293.136719 201.867188 292.996094 201.054688 292.507812 200.453125 C 292.464844 200.402344 292.421875 200.359375 292.378906 200.3125 L 288.691406 200.242188 C 288.382812 200.238281 288.085938 200.152344 287.824219 200.003906 Z M 287.824219 200.003906 " fill-opacity="1" fill-rule="nonzero"/><path fill="#000000" d="M 285.949219 192.195312 C 285.488281 191.5625 284.59375 191.417969 283.953125 191.878906 C 283.3125 192.339844 283.171875 193.226562 283.636719 193.863281 L 287.570312 199.25 C 287.832031 199.609375 288.25 199.828125 288.699219 199.835938 L 296.507812 199.984375 C 296.519531 199.984375 296.527344 199.984375 296.535156 199.984375 C 297.3125 199.984375 297.953125 199.367188 297.964844 198.589844 C 297.980469 197.804688 297.351562 197.160156 296.5625 197.144531 L 289.46875 197.007812 Z M 285.949219 192.195312 " fill-opacity="1" fill-rule="nonzero"/><path fill="#000000" d="M 354.726562 183.714844 C 354.726562 183.976562 354.703125 184.234375 354.648438 184.492188 C 354.597656 184.75 354.523438 185 354.421875 185.242188 C 354.320312 185.484375 354.195312 185.714844 354.050781 185.933594 C 353.902344 186.152344 353.734375 186.351562 353.550781 186.539062 C 353.363281 186.722656 353.160156 186.890625 352.9375 187.035156 C 352.71875 187.179688 352.488281 187.304688 352.242188 187.402344 C 352 187.503906 351.746094 187.582031 351.488281 187.632812 C 351.230469 187.683594 350.96875 187.707031 350.703125 187.707031 C 350.441406 187.707031 350.179688 187.683594 349.917969 187.632812 C 349.660156 187.582031 349.40625 187.503906 349.164062 187.402344 C 348.921875 187.304688 348.6875 187.179688 348.46875 187.035156 C 348.25 186.890625 348.046875 186.722656 347.859375 186.539062 C 347.671875 186.351562 347.503906 186.152344 347.359375 185.933594 C 347.210938 185.714844 347.085938 185.484375 346.988281 185.242188 C 346.886719 185 346.808594 184.75 346.757812 184.492188 C 346.707031 184.234375 346.679688 183.976562 346.679688 183.714844 C 346.679688 183.449219 346.707031 183.191406 346.757812 182.933594 C 346.808594 182.675781 346.886719 182.425781 346.988281 182.183594 C 347.085938 181.941406 347.210938 181.710938 347.359375 181.492188 C 347.503906 181.273438 347.671875 181.074219 347.859375 180.886719 C 348.046875 180.703125 348.25 180.535156 348.46875 180.390625 C 348.6875 180.246094 348.921875 180.121094 349.164062 180.023438 C 349.40625 179.921875 349.660156 179.847656 349.917969 179.792969 C 350.179688 179.742188 350.441406 179.71875 350.703125 179.71875 C 350.96875 179.71875 351.230469 179.742188 351.488281 179.792969 C 351.746094 179.847656 352 179.921875 352.242188 180.023438 C 352.488281 180.121094 352.71875 180.246094 352.9375 180.390625 C 353.160156 180.535156 353.363281 180.703125 353.550781 180.886719 C 353.734375 181.074219 353.902344 181.273438 354.050781 181.492188 C 354.195312 181.710938 354.320312 181.941406 354.421875 182.183594 C 354.523438 182.425781 354.597656 182.675781 354.648438 182.933594 C 354.703125 183.191406 354.726562 183.449219 354.726562 183.714844 Z M 354.726562 183.714844 " fill-opacity="1" fill-rule="nonzero"/><path fill="#000000" d="M 352.140625 194.582031 L 352.667969 191.460938 C 352.816406 190.574219 353.578125 189.933594 354.480469 189.933594 C 354.582031 189.933594 354.6875 189.941406 354.789062 189.960938 C 355.273438 190.039062 355.699219 190.304688 355.984375 190.703125 C 356.269531 191.097656 356.382812 191.582031 356.300781 192.066406 L 355.136719 198.945312 C 354.988281 199.832031 354.226562 200.472656 353.324219 200.472656 C 353.253906 200.472656 353.1875 200.46875 353.117188 200.460938 C 352.621094 200.40625 352.050781 200.378906 351.46875 200.378906 C 349.125 200.378906 347.289062 200.800781 346.558594 201.507812 C 346.214844 201.839844 345.757812 202.027344 345.273438 202.027344 C 345.230469 202.027344 345.183594 202.023438 345.140625 202.019531 C 345.140625 202.113281 345.148438 202.207031 345.160156 202.296875 L 346.699219 212.597656 C 346.863281 213.699219 347.816406 214.492188 348.90625 214.492188 C 349.015625 214.492188 349.125 214.484375 349.238281 214.464844 C 350.460938 214.285156 351.300781 213.15625 351.121094 211.945312 L 349.964844 204.191406 L 356.050781 204.191406 C 356.761719 204.191406 357.390625 203.863281 357.800781 203.351562 C 358.347656 202.886719 358.785156 202.164062 359.007812 201.050781 C 359.488281 197.109375 359.234375 194.777344 358.035156 191.1875 C 357.144531 188.585938 354.9375 187.75 353.410156 188.121094 C 353.027344 188.214844 352.699219 188.417969 352.425781 188.695312 C 352.351562 188.753906 352.277344 188.820312 352.214844 188.894531 L 351.292969 189.941406 L 348.734375 192.859375 L 342.953125 190.867188 C 342.207031 190.613281 341.390625 191.003906 341.132812 191.746094 C 340.871094 192.484375 341.265625 193.296875 342.015625 193.554688 L 348.707031 195.859375 C 348.859375 195.914062 349.019531 195.9375 349.175781 195.9375 C 349.582031 195.9375 349.980469 195.765625 350.253906 195.449219 L 351.59375 193.925781 L 351.933594 193.535156 C 352.003906 193.875 352.070312 194.222656 352.140625 194.582031 Z M 352.140625 194.582031 " fill-opacity="1" fill-rule="nonzero"/><path fill="#000000" d="M 315.441406 190.957031 L 315.570312 190.9375 L 318.953125 190.441406 C 319.25 190.394531 319.519531 190.238281 319.703125 190.003906 L 324.199219 184.195312 C 324.59375 183.691406 324.496094 182.964844 323.988281 182.578125 C 323.480469 182.1875 322.75 182.285156 322.359375 182.789062 L 318.144531 188.226562 L 314.890625 188.707031 C 314.890625 190.082031 315.179688 190.691406 315.441406 190.957031 Z M 315.441406 190.957031 " fill-opacity="1" fill-rule="nonzero"/><path fill="#000000" d="M 312.242188 186.78125 C 312.347656 188.171875 312.140625 190.054688 313.121094 191.113281 C 314.96875 193.109375 316.980469 191.617188 316.167969 191.632812 C 315.355469 191.652344 314.355469 191.160156 314.488281 188.183594 C 314.582031 186.066406 313.875 184.984375 312.984375 184.417969 C 312.980469 185.292969 312.707031 186.109375 312.242188 186.78125 Z M 312.242188 186.78125 " fill-opacity="1" fill-rule="nonzero"/><path fill="#000000" d="M 310.199219 180.871094 C 310.671875 181.066406 311.085938 181.339844 311.445312 181.699219 C 311.808594 182.054688 312.085938 182.46875 312.28125 182.9375 C 312.476562 183.40625 312.574219 183.890625 312.574219 184.398438 C 312.574219 184.902344 312.476562 185.390625 312.28125 185.859375 C 312.085938 186.328125 311.808594 186.738281 311.445312 187.097656 C 311.085938 187.457031 310.671875 187.730469 310.199219 187.925781 C 309.730469 188.117188 309.238281 188.214844 308.726562 188.214844 C 308.21875 188.214844 307.726562 188.117188 307.257812 187.925781 C 306.785156 187.730469 306.371094 187.457031 306.011719 187.097656 C 305.648438 186.738281 305.371094 186.328125 305.175781 185.859375 C 304.980469 185.390625 304.882812 184.902344 304.882812 184.398438 C 304.882812 183.890625 304.980469 183.40625 305.175781 182.9375 C 305.371094 182.46875 305.648438 182.054688 306.011719 181.699219 C 306.371094 181.339844 306.785156 181.066406 307.257812 180.871094 C 307.726562 180.675781 308.21875 180.582031 308.726562 180.582031 C 309.238281 180.582031 309.730469 180.675781 310.199219 180.871094 Z M 310.199219 180.871094 " fill-opacity="1" fill-rule="nonzero"/><path fill="#000000" d="M 345.273438 201.617188 C 345.632812 201.617188 345.992188 201.484375 346.273438 201.214844 C 347.5625 199.964844 351.183594 199.839844 353.164062 200.054688 C 353.914062 200.136719 354.605469 199.621094 354.730469 198.878906 L 355.894531 191.996094 C 356.023438 191.222656 355.5 190.492188 354.71875 190.363281 C 353.941406 190.230469 353.203125 190.753906 353.074219 191.527344 L 352.125 197.140625 C 350.066406 197.074219 346.277344 197.246094 344.277344 199.179688 C 343.710938 199.726562 343.699219 200.625 344.25 201.1875 C 344.53125 201.472656 344.902344 201.617188 345.273438 201.617188 Z M 345.273438 201.617188 " fill-opacity="1" fill-rule="nonzero"/><path fill="#000000" d="M 292.40625 180.980469 C 292.445312 181.03125 292.507812 181.058594 292.566406 181.058594 C 292.605469 181.058594 292.640625 181.046875 292.671875 181.027344 C 292.789062 180.960938 295.460938 179.347656 296.269531 177.539062 L 305.777344 177.539062 C 306.878906 177.539062 307.769531 176.652344 307.769531 175.558594 L 307.769531 167.910156 C 307.769531 166.816406 306.878906 165.929688 305.777344 165.929688 L 289.65625 165.929688 C 288.558594 165.929688 287.664062 166.816406 287.664062 167.910156 L 287.664062 175.558594 C 287.664062 176.652344 288.558594 177.539062 289.65625 177.539062 L 294.0625 177.539062 C 294.046875 179.03125 292.4375 180.695312 292.421875 180.710938 C 292.347656 180.785156 292.34375 180.898438 292.40625 180.980469 Z M 294.46875 177.316406 C 294.457031 177.210938 294.371094 177.128906 294.261719 177.128906 L 289.65625 177.128906 C 288.785156 177.128906 288.074219 176.425781 288.074219 175.558594 L 288.074219 167.910156 C 288.074219 167.042969 288.785156 166.339844 289.65625 166.339844 L 305.777344 166.339844 C 306.648438 166.339844 307.359375 167.042969 307.359375 167.910156 L 307.359375 175.558594 C 307.359375 176.425781 306.648438 177.128906 305.777344 177.128906 L 296.132812 177.128906 C 296.046875 177.128906 295.96875 177.183594 295.9375 177.261719 C 295.546875 178.265625 294.449219 179.246094 293.59375 179.898438 C 294.066406 179.191406 294.542969 178.234375 294.46875 177.316406 Z M 294.46875 177.316406 " fill-opacity="1" fill-rule="nonzero"/><path fill="#000000" d="M 313.695312 181 C 313.738281 181.050781 313.796875 181.078125 313.859375 181.078125 C 313.894531 181.078125 313.929688 181.070312 313.964844 181.050781 C 314.042969 181.003906 315.863281 179.90625 316.445312 178.65625 L 327.484375 178.65625 C 328.273438 178.65625 328.917969 178.019531 328.917969 177.230469 L 328.917969 170.699219 C 328.917969 169.914062 328.273438 169.273438 327.484375 169.273438 L 312.300781 169.273438 C 311.507812 169.273438 310.863281 169.914062 310.863281 170.699219 L 310.863281 177.230469 C 310.863281 178.019531 311.507812 178.65625 312.300781 178.65625 L 314.820312 178.65625 C 314.765625 179.640625 313.722656 180.722656 313.710938 180.734375 C 313.636719 180.804688 313.632812 180.921875 313.695312 181 Z M 315.230469 178.4375 C 315.21875 178.332031 315.132812 178.25 315.023438 178.25 L 312.300781 178.25 C 311.734375 178.25 311.273438 177.792969 311.273438 177.230469 L 311.273438 170.699219 C 311.273438 170.136719 311.734375 169.679688 312.300781 169.679688 L 327.484375 169.679688 C 328.046875 169.679688 328.507812 170.136719 328.507812 170.699219 L 328.507812 177.230469 C 328.507812 177.792969 328.046875 178.25 327.484375 178.25 L 316.308594 178.25 C 316.226562 178.25 316.148438 178.300781 316.117188 178.378906 C 315.894531 178.949219 315.328125 179.515625 314.808594 179.941406 C 315.066406 179.496094 315.273438 178.957031 315.230469 178.4375 Z M 315.230469 178.4375 " fill-opacity="1" fill-rule="nonzero"/><g clip-path="url(#2adcb98f73)"><path fill="#000000" d="M 351.308594 173.945312 L 351.308594 166.296875 C 351.308594 165.207031 350.414062 164.316406 349.3125 164.316406 L 333.195312 164.316406 C 332.09375 164.316406 331.199219 165.207031 331.199219 166.296875 L 331.199219 173.945312 C 331.199219 175.039062 332.09375 175.925781 333.195312 175.925781 L 342.703125 175.925781 C 343.507812 177.734375 346.179688 179.347656 346.296875 179.414062 C 346.332031 179.4375 346.367188 179.445312 346.402344 179.445312 C 346.464844 179.445312 346.523438 179.417969 346.566406 179.367188 C 346.628906 179.289062 346.621094 179.171875 346.550781 179.097656 C 346.535156 179.082031 344.921875 177.421875 344.90625 175.925781 L 349.3125 175.925781 C 350.414062 175.925781 351.308594 175.039062 351.308594 173.945312 Z M 344.503906 175.707031 C 344.425781 176.621094 344.902344 177.578125 345.378906 178.285156 C 344.523438 177.632812 343.425781 176.652344 343.03125 175.648438 C 343 175.570312 342.925781 175.519531 342.839844 175.519531 L 333.195312 175.519531 C 332.320312 175.519531 331.609375 174.8125 331.609375 173.945312 L 331.609375 166.296875 C 331.609375 165.429688 332.320312 164.726562 333.195312 164.726562 L 349.3125 164.726562 C 350.1875 164.726562 350.898438 165.429688 350.898438 166.296875 L 350.898438 173.945312 C 350.898438 174.8125 350.1875 175.519531 349.3125 175.519531 L 344.707031 175.519531 C 344.601562 175.519531 344.511719 175.597656 344.503906 175.707031 Z M 344.503906 175.707031 " fill-opacity="1" fill-rule="nonzero"/></g></svg>